<?xml version="1.0" encoding="UTF-8" standalone="no"?>
<!DOCTYPE svg PUBLIC "-//W3C//DTD SVG 1.1//EN"
 "http://www.w3.org/Graphics/SVG/1.1/DTD/svg11.dtd">
<!-- Generated by graphviz version 2.43.0 (0)
 -->
<!-- Title: G Pages: 1 -->
<svg width="1573pt" height="1119pt"
 viewBox="0.00 0.00 1573.20 1119.20" xmlns="http://www.w3.org/2000/svg" xmlns:xlink="http://www.w3.org/1999/xlink">
<g id="graph0" class="graph" transform="scale(1 1) rotate(0) translate(21.6 1097.6)">
<title>G</title>
<polygon fill="#111111" stroke="transparent" points="-21.6,21.6 -21.6,-1097.6 1551.6,-1097.6 1551.6,21.6 -21.6,21.6"/>
<!-- addAction.ts -->
<g id="node1" class="node">
<title>addAction.ts</title>
<path fill="none" stroke="#c6c5fe" d="M451.83,-105C451.83,-105 376.17,-105 376.17,-105 372.33,-105 368.5,-101.17 368.5,-97.33 368.5,-97.33 368.5,-89.67 368.5,-89.67 368.5,-85.83 372.33,-82 376.17,-82 376.17,-82 451.83,-82 451.83,-82 455.67,-82 459.5,-85.83 459.5,-89.67 459.5,-89.67 459.5,-97.33 459.5,-97.33 459.5,-101.17 455.67,-105 451.83,-105"/>
<text text-anchor="middle" x="414" y="-89.8" font-family="Arial" font-size="14.00" fill="#c6c5fe">addAction.ts</text>
</g>
<!-- internals/singletons/MacroService.ts -->
<g id="node2" class="node">
<title>internals/singletons/MacroService.ts</title>
<path fill="none" stroke="#c6c5fe" d="M778.33,-146C778.33,-146 560.67,-146 560.67,-146 556.83,-146 553,-142.17 553,-138.33 553,-138.33 553,-130.67 553,-130.67 553,-126.83 556.83,-123 560.67,-123 560.67,-123 778.33,-123 778.33,-123 782.17,-123 786,-126.83 786,-130.67 786,-130.67 786,-138.33 786,-138.33 786,-142.17 782.17,-146 778.33,-146"/>
<text text-anchor="middle" x="669.5" y="-130.8" font-family="Arial" font-size="14.00" fill="#c6c5fe">internals/singletons/MacroService.ts</text>
</g>
<!-- addAction.ts&#45;&gt;internals/singletons/MacroService.ts -->
<g id="edge1" class="edge">
<title>addAction.ts&#45;&gt;internals/singletons/MacroService.ts</title>
<path fill="none" stroke="#757575" d="M459.74,-100.74C494.87,-106.42 544.74,-114.48 586.93,-121.31"/>
<polygon fill="#757575" stroke="#757575" points="586.48,-124.78 596.91,-122.92 587.6,-117.87 586.48,-124.78"/>
</g>
<!-- types/macro.ts -->
<g id="node25" class="node">
<title>types/macro.ts</title>
<path fill="none" stroke="#cfffac" d="M969.83,-237C969.83,-237 880.17,-237 880.17,-237 876.33,-237 872.5,-233.17 872.5,-229.33 872.5,-229.33 872.5,-221.67 872.5,-221.67 872.5,-217.83 876.33,-214 880.17,-214 880.17,-214 969.83,-214 969.83,-214 973.67,-214 977.5,-217.83 977.5,-221.67 977.5,-221.67 977.5,-229.33 977.5,-229.33 977.5,-233.17 973.67,-237 969.83,-237"/>
<text text-anchor="middle" x="925" y="-221.8" font-family="Arial" font-size="14.00" fill="#cfffac">types/macro.ts</text>
</g>
<!-- internals/singletons/MacroService.ts&#45;&gt;types/macro.ts -->
<g id="edge24" class="edge">
<title>internals/singletons/MacroService.ts&#45;&gt;types/macro.ts</title>
<path fill="none" stroke="#757575" d="M702.61,-146.03C748.2,-162.39 831.74,-192.38 882.14,-210.47"/>
<polygon fill="#757575" stroke="#757575" points="881.16,-213.84 891.76,-213.92 883.53,-207.25 881.16,-213.84"/>
</g>
<!-- addFilter.ts -->
<g id="node3" class="node">
<title>addFilter.ts</title>
<path fill="none" stroke="#c6c5fe" d="M447.83,-146C447.83,-146 380.17,-146 380.17,-146 376.33,-146 372.5,-142.17 372.5,-138.33 372.5,-138.33 372.5,-130.67 372.5,-130.67 372.5,-126.83 376.33,-123 380.17,-123 380.17,-123 447.83,-123 447.83,-123 451.67,-123 455.5,-126.83 455.5,-130.67 455.5,-130.67 455.5,-138.33 455.5,-138.33 455.5,-142.17 451.67,-146 447.83,-146"/>
<text text-anchor="middle" x="414" y="-130.8" font-family="Arial" font-size="14.00" fill="#c6c5fe">addFilter.ts</text>
</g>
<!-- addFilter.ts&#45;&gt;internals/singletons/MacroService.ts -->
<g id="edge2" class="edge">
<title>addFilter.ts&#45;&gt;internals/singletons/MacroService.ts</title>
<path fill="none" stroke="#757575" d="M455.73,-134.5C479.6,-134.5 511.17,-134.5 542.67,-134.5"/>
<polygon fill="#757575" stroke="#757575" points="542.89,-138 552.89,-134.5 542.89,-131 542.89,-138"/>
</g>
<!-- applyFilters.ts -->
<g id="node4" class="node">
<title>applyFilters.ts</title>
<path fill="none" stroke="#c6c5fe" d="M456.33,-64C456.33,-64 371.67,-64 371.67,-64 367.83,-64 364,-60.17 364,-56.33 364,-56.33 364,-48.67 364,-48.67 364,-44.83 367.83,-41 371.67,-41 371.67,-41 456.33,-41 456.33,-41 460.17,-41 464,-44.83 464,-48.67 464,-48.67 464,-56.33 464,-56.33 464,-60.17 460.17,-64 456.33,-64"/>
<text text-anchor="middle" x="414" y="-48.8" font-family="Arial" font-size="14.00" fill="#c6c5fe">applyFilters.ts</text>
</g>
<!-- applyFilters.ts&#45;&gt;internals/singletons/MacroService.ts -->
<g id="edge3" class="edge">
<title>applyFilters.ts&#45;&gt;internals/singletons/MacroService.ts</title>
<path fill="none" stroke="#757575" d="M464.11,-61.56C478.38,-64.59 493.92,-68.29 508,-72.5 551.84,-85.59 600.67,-105.21 632.83,-118.86"/>
<polygon fill="#757575" stroke="#757575" points="631.68,-122.18 642.25,-122.89 634.43,-115.74 631.68,-122.18"/>
</g>
<!-- auth.ts -->
<g id="node5" class="node">
<title>auth.ts</title>
<path fill="none" stroke="#c6c5fe" d="M162.83,-871C162.83,-871 121.17,-871 121.17,-871 117.33,-871 113.5,-867.17 113.5,-863.33 113.5,-863.33 113.5,-855.67 113.5,-855.67 113.5,-851.83 117.33,-848 121.17,-848 121.17,-848 162.83,-848 162.83,-848 166.67,-848 170.5,-851.83 170.5,-855.67 170.5,-855.67 170.5,-863.33 170.5,-863.33 170.5,-867.17 166.67,-871 162.83,-871"/>
<text text-anchor="middle" x="142" y="-855.8" font-family="Arial" font-size="14.00" fill="#c6c5fe">auth.ts</text>
</g>
<!-- internals/singletons/Auth.ts -->
<g id="node6" class="node">
<title>internals/singletons/Auth.ts</title>
<path fill="none" stroke="#c6c5fe" d="M495.33,-871C495.33,-871 332.67,-871 332.67,-871 328.83,-871 325,-867.17 325,-863.33 325,-863.33 325,-855.67 325,-855.67 325,-851.83 328.83,-848 332.67,-848 332.67,-848 495.33,-848 495.33,-848 499.17,-848 503,-851.83 503,-855.67 503,-855.67 503,-863.33 503,-863.33 503,-867.17 499.17,-871 495.33,-871"/>
<text text-anchor="middle" x="414" y="-855.8" font-family="Arial" font-size="14.00" fill="#c6c5fe">internals/singletons/Auth.ts</text>
</g>
<!-- auth.ts&#45;&gt;internals/singletons/Auth.ts -->
<g id="edge4" class="edge">
<title>auth.ts&#45;&gt;internals/singletons/Auth.ts</title>
<path fill="none" stroke="#757575" d="M170.63,-859.5C204.39,-859.5 263.39,-859.5 314.72,-859.5"/>
<polygon fill="#757575" stroke="#757575" points="314.87,-863 324.87,-859.5 314.87,-856 314.87,-863"/>
</g>
<!-- blade.ts -->
<g id="node7" class="node">
<title>blade.ts</title>
<path fill="none" stroke="#cfffac" d="M949.33,-871C949.33,-871 900.67,-871 900.67,-871 896.83,-871 893,-867.17 893,-863.33 893,-863.33 893,-855.67 893,-855.67 893,-851.83 896.83,-848 900.67,-848 900.67,-848 949.33,-848 949.33,-848 953.17,-848 957,-851.83 957,-855.67 957,-855.67 957,-863.33 957,-863.33 957,-867.17 953.17,-871 949.33,-871"/>
<text text-anchor="middle" x="925" y="-855.8" font-family="Arial" font-size="14.00" fill="#cfffac">blade.ts</text>
</g>
<!-- internals/singletons/Auth.ts&#45;&gt;blade.ts -->
<g id="edge19" class="edge">
<title>internals/singletons/Auth.ts&#45;&gt;blade.ts</title>
<path fill="none" stroke="#757575" d="M503.08,-859.5C614.02,-859.5 800.1,-859.5 882.54,-859.5"/>
<polygon fill="#757575" stroke="#757575" points="882.76,-863 892.76,-859.5 882.76,-856 882.76,-863"/>
</g>
<!-- internals/singletons/ModelRepository.ts -->
<g id="node20" class="node">
<title>internals/singletons/ModelRepository.ts</title>
<path fill="none" stroke="#ff6c60" d="M787.33,-607C787.33,-607 551.67,-607 551.67,-607 547.83,-607 544,-603.17 544,-599.33 544,-599.33 544,-591.67 544,-591.67 544,-587.83 547.83,-584 551.67,-584 551.67,-584 787.33,-584 787.33,-584 791.17,-584 795,-587.83 795,-591.67 795,-591.67 795,-599.33 795,-599.33 795,-603.17 791.17,-607 787.33,-607"/>
<text text-anchor="middle" x="669.5" y="-591.8" font-family="Arial" font-size="14.00" fill="#ff6c60">internals/singletons/ModelRepository.ts</text>
</g>
<!-- internals/singletons/Auth.ts&#45;&gt;internals/singletons/ModelRepository.ts -->
<g id="edge20" class="edge">
<title>internals/singletons/Auth.ts&#45;&gt;internals/singletons/ModelRepository.ts</title>
<path fill="none" stroke="#757575" d="M426.22,-847.82C466.06,-806.33 600.95,-665.84 650.26,-614.5"/>
<polygon fill="#757575" stroke="#757575" points="653.01,-616.69 657.41,-607.05 647.96,-611.84 653.01,-616.69"/>
</g>
<!-- types/model.ts -->
<g id="node23" class="node">
<title>types/model.ts</title>
<path fill="none" stroke="#ff6c60" d="M1382.33,-734C1382.33,-734 1293.67,-734 1293.67,-734 1289.83,-734 1286,-730.17 1286,-726.33 1286,-726.33 1286,-718.67 1286,-718.67 1286,-714.83 1289.83,-711 1293.67,-711 1293.67,-711 1382.33,-711 1382.33,-711 1386.17,-711 1390,-714.83 1390,-718.67 1390,-718.67 1390,-726.33 1390,-726.33 1390,-730.17 1386.17,-734 1382.33,-734"/>
<text text-anchor="middle" x="1338" y="-718.8" font-family="Arial" font-size="14.00" fill="#ff6c60">types/model.ts</text>
</g>
<!-- internals/singletons/Auth.ts&#45;&gt;types/model.ts -->
<g id="edge21" class="edge">
<title>internals/singletons/Auth.ts&#45;&gt;types/model.ts</title>
<path fill="none" stroke="#757575" d="M503.04,-870.09C516.73,-871.44 530.74,-872.64 544,-873.5 754.69,-887.11 808.86,-899.85 1019,-879.5 1120.42,-869.68 1156.48,-887.68 1244,-835.5 1281.93,-812.89 1311.22,-768.9 1326.12,-742.98"/>
<polygon fill="#757575" stroke="#757575" points="1329.31,-744.45 1331.12,-734.01 1323.19,-741.04 1329.31,-744.45"/>
</g>
<!-- bootstrapApp.ts -->
<g id="node8" class="node">
<title>bootstrapApp.ts</title>
<path fill="none" stroke="#c6c5fe" d="M461.83,-377C461.83,-377 366.17,-377 366.17,-377 362.33,-377 358.5,-373.17 358.5,-369.33 358.5,-369.33 358.5,-361.67 358.5,-361.67 358.5,-357.83 362.33,-354 366.17,-354 366.17,-354 461.83,-354 461.83,-354 465.67,-354 469.5,-357.83 469.5,-361.67 469.5,-361.67 469.5,-369.33 469.5,-369.33 469.5,-373.17 465.67,-377 461.83,-377"/>
<text text-anchor="middle" x="414" y="-361.8" font-family="Arial" font-size="14.00" fill="#c6c5fe">bootstrapApp.ts</text>
</g>
<!-- internals/registerConfig.ts -->
<g id="node9" class="node">
<title>internals/registerConfig.ts</title>
<path fill="none" stroke="#c6c5fe" d="M746.83,-418C746.83,-418 592.17,-418 592.17,-418 588.33,-418 584.5,-414.17 584.5,-410.33 584.5,-410.33 584.5,-402.67 584.5,-402.67 584.5,-398.83 588.33,-395 592.17,-395 592.17,-395 746.83,-395 746.83,-395 750.67,-395 754.5,-398.83 754.5,-402.67 754.5,-402.67 754.5,-410.33 754.5,-410.33 754.5,-414.17 750.67,-418 746.83,-418"/>
<text text-anchor="middle" x="669.5" y="-402.8" font-family="Arial" font-size="14.00" fill="#c6c5fe">internals/registerConfig.ts</text>
</g>
<!-- bootstrapApp.ts&#45;&gt;internals/registerConfig.ts -->
<g id="edge5" class="edge">
<title>bootstrapApp.ts&#45;&gt;internals/registerConfig.ts</title>
<path fill="none" stroke="#757575" d="M469.69,-374.35C503.9,-379.88 548.59,-387.11 586.93,-393.31"/>
<polygon fill="#757575" stroke="#757575" points="586.61,-396.8 597.04,-394.94 587.73,-389.89 586.61,-396.8"/>
</g>
<!-- internals/setupLang.ts -->
<g id="node10" class="node">
<title>internals/setupLang.ts</title>
<path fill="none" stroke="#c6c5fe" d="M736.33,-377C736.33,-377 602.67,-377 602.67,-377 598.83,-377 595,-373.17 595,-369.33 595,-369.33 595,-361.67 595,-361.67 595,-357.83 598.83,-354 602.67,-354 602.67,-354 736.33,-354 736.33,-354 740.17,-354 744,-357.83 744,-361.67 744,-361.67 744,-369.33 744,-369.33 744,-373.17 740.17,-377 736.33,-377"/>
<text text-anchor="middle" x="669.5" y="-361.8" font-family="Arial" font-size="14.00" fill="#c6c5fe">internals/setupLang.ts</text>
</g>
<!-- bootstrapApp.ts&#45;&gt;internals/setupLang.ts -->
<g id="edge6" class="edge">
<title>bootstrapApp.ts&#45;&gt;internals/setupLang.ts</title>
<path fill="none" stroke="#757575" d="M469.69,-365.5C503.09,-365.5 546.47,-365.5 584.19,-365.5"/>
<polygon fill="#757575" stroke="#757575" points="584.67,-369 594.67,-365.5 584.67,-362 584.67,-369"/>
</g>
<!-- types/config.ts -->
<g id="node11" class="node">
<title>types/config.ts</title>
<path fill="none" stroke="#c6c5fe" d="M1381.83,-396C1381.83,-396 1294.17,-396 1294.17,-396 1290.33,-396 1286.5,-392.17 1286.5,-388.33 1286.5,-388.33 1286.5,-380.67 1286.5,-380.67 1286.5,-376.83 1290.33,-373 1294.17,-373 1294.17,-373 1381.83,-373 1381.83,-373 1385.67,-373 1389.5,-376.83 1389.5,-380.67 1389.5,-380.67 1389.5,-388.33 1389.5,-388.33 1389.5,-392.17 1385.67,-396 1381.83,-396"/>
<text text-anchor="middle" x="1338" y="-380.8" font-family="Arial" font-size="14.00" fill="#c6c5fe">types/config.ts</text>
</g>
<!-- bootstrapApp.ts&#45;&gt;types/config.ts -->
<g id="edge7" class="edge">
<title>bootstrapApp.ts&#45;&gt;types/config.ts</title>
<path fill="none" stroke="#757575" d="M469.69,-354.6C492.55,-350.56 519.46,-346.48 544,-344.5 754.42,-327.48 808.29,-331.44 1019,-344.5 1119.58,-350.73 1144.03,-359.83 1244,-372.5 1254.4,-373.82 1265.46,-375.23 1276.18,-376.61"/>
<polygon fill="#757575" stroke="#757575" points="1275.96,-380.11 1286.33,-377.92 1276.85,-373.17 1275.96,-380.11"/>
</g>
<!-- internals/singletons/Config.ts -->
<g id="node14" class="node">
<title>internals/singletons/Config.ts</title>
<path fill="none" stroke="#c6c5fe" d="M1236.33,-405C1236.33,-405 1062.67,-405 1062.67,-405 1058.83,-405 1055,-401.17 1055,-397.33 1055,-397.33 1055,-389.67 1055,-389.67 1055,-385.83 1058.83,-382 1062.67,-382 1062.67,-382 1236.33,-382 1236.33,-382 1240.17,-382 1244,-385.83 1244,-389.67 1244,-389.67 1244,-397.33 1244,-397.33 1244,-401.17 1240.17,-405 1236.33,-405"/>
<text text-anchor="middle" x="1149.5" y="-389.8" font-family="Arial" font-size="14.00" fill="#c6c5fe">internals/singletons/Config.ts</text>
</g>
<!-- internals/registerConfig.ts&#45;&gt;internals/singletons/Config.ts -->
<g id="edge17" class="edge">
<title>internals/registerConfig.ts&#45;&gt;internals/singletons/Config.ts</title>
<path fill="none" stroke="#757575" d="M754.58,-404.21C835.37,-402.02 957.64,-398.69 1044.51,-396.33"/>
<polygon fill="#757575" stroke="#757575" points="1044.75,-399.82 1054.65,-396.05 1044.56,-392.83 1044.75,-399.82"/>
</g>
<!-- config.ts -->
<g id="node13" class="node">
<title>config.ts</title>
<path fill="none" stroke="#c6c5fe" d="M950.83,-377C950.83,-377 899.17,-377 899.17,-377 895.33,-377 891.5,-373.17 891.5,-369.33 891.5,-369.33 891.5,-361.67 891.5,-361.67 891.5,-357.83 895.33,-354 899.17,-354 899.17,-354 950.83,-354 950.83,-354 954.67,-354 958.5,-357.83 958.5,-361.67 958.5,-361.67 958.5,-369.33 958.5,-369.33 958.5,-373.17 954.67,-377 950.83,-377"/>
<text text-anchor="middle" x="925" y="-361.8" font-family="Arial" font-size="14.00" fill="#c6c5fe">config.ts</text>
</g>
<!-- internals/setupLang.ts&#45;&gt;config.ts -->
<g id="edge18" class="edge">
<title>internals/setupLang.ts&#45;&gt;config.ts</title>
<path fill="none" stroke="#757575" d="M744.16,-365.5C788.66,-365.5 843.81,-365.5 881.22,-365.5"/>
<polygon fill="#757575" stroke="#757575" points="881.28,-369 891.28,-365.5 881.28,-362 881.28,-369"/>
</g>
<!-- types/lang.ts -->
<g id="node31" class="node">
<title>types/lang.ts</title>
<path fill="none" stroke="#cfffac" d="M1519.33,-396C1519.33,-396 1442.67,-396 1442.67,-396 1438.83,-396 1435,-392.17 1435,-388.33 1435,-388.33 1435,-380.67 1435,-380.67 1435,-376.83 1438.83,-373 1442.67,-373 1442.67,-373 1519.33,-373 1519.33,-373 1523.17,-373 1527,-376.83 1527,-380.67 1527,-380.67 1527,-388.33 1527,-388.33 1527,-392.17 1523.17,-396 1519.33,-396"/>
<text text-anchor="middle" x="1481" y="-380.8" font-family="Arial" font-size="14.00" fill="#cfffac">types/lang.ts</text>
</g>
<!-- types/config.ts&#45;&gt;types/lang.ts -->
<g id="edge36" class="edge">
<title>types/config.ts&#45;&gt;types/lang.ts</title>
<path fill="none" stroke="#757575" d="M1389.51,-384.5C1401,-384.5 1413.26,-384.5 1424.93,-384.5"/>
<polygon fill="#757575" stroke="#757575" points="1425,-388 1435,-384.5 1425,-381 1425,-388"/>
</g>
<!-- components/RepositoryIndex/mediaQuery.ts -->
<g id="node12" class="node">
<title>components/RepositoryIndex/mediaQuery.ts</title>
<path fill="none" stroke="#cfffac" d="M276.33,-912C276.33,-912 7.67,-912 7.67,-912 3.83,-912 0,-908.17 0,-904.33 0,-904.33 0,-896.67 0,-896.67 0,-892.83 3.83,-889 7.67,-889 7.67,-889 276.33,-889 276.33,-889 280.17,-889 284,-892.83 284,-896.67 284,-896.67 284,-904.33 284,-904.33 284,-908.17 280.17,-912 276.33,-912"/>
<text text-anchor="middle" x="142" y="-896.8" font-family="Arial" font-size="14.00" fill="#cfffac">components/RepositoryIndex/mediaQuery.ts</text>
</g>
<!-- config.ts&#45;&gt;internals/singletons/Config.ts -->
<g id="edge8" class="edge">
<title>config.ts&#45;&gt;internals/singletons/Config.ts</title>
<path fill="none" stroke="#757575" d="M958.83,-369.63C982.17,-372.57 1014.89,-376.69 1046.58,-380.67"/>
<polygon fill="#757575" stroke="#757575" points="1046.47,-384.19 1056.83,-381.96 1047.34,-377.24 1046.47,-384.19"/>
</g>
<!-- internals/singletons/Config.ts&#45;&gt;types/config.ts -->
<g id="edge23" class="edge">
<title>internals/singletons/Config.ts&#45;&gt;types/config.ts</title>
<path fill="none" stroke="#757575" d="M1244.02,-388.99C1254.93,-388.46 1265.83,-387.93 1276.13,-387.44"/>
<polygon fill="#757575" stroke="#757575" points="1276.39,-390.93 1286.21,-386.95 1276.05,-383.94 1276.39,-390.93"/>
</g>
<!-- support/object.ts -->
<g id="node22" class="node">
<title>support/object.ts</title>
<path fill="none" stroke="#cfffac" d="M1388.33,-455C1388.33,-455 1287.67,-455 1287.67,-455 1283.83,-455 1280,-451.17 1280,-447.33 1280,-447.33 1280,-439.67 1280,-439.67 1280,-435.83 1283.83,-432 1287.67,-432 1287.67,-432 1388.33,-432 1388.33,-432 1392.17,-432 1396,-435.83 1396,-439.67 1396,-439.67 1396,-447.33 1396,-447.33 1396,-451.17 1392.17,-455 1388.33,-455"/>
<text text-anchor="middle" x="1338" y="-439.8" font-family="Arial" font-size="14.00" fill="#cfffac">support/object.ts</text>
</g>
<!-- internals/singletons/Config.ts&#45;&gt;support/object.ts -->
<g id="edge22" class="edge">
<title>internals/singletons/Config.ts&#45;&gt;support/object.ts</title>
<path fill="none" stroke="#757575" d="M1193.76,-405.1C1220.71,-412.32 1255.57,-421.67 1284.15,-429.33"/>
<polygon fill="#757575" stroke="#757575" points="1283.41,-432.76 1293.98,-431.97 1285.23,-426 1283.41,-432.76"/>
</g>
<!-- dialog.ts -->
<g id="node15" class="node">
<title>dialog.ts</title>
<path fill="none" stroke="#c6c5fe" d="M167.83,-953C167.83,-953 116.17,-953 116.17,-953 112.33,-953 108.5,-949.17 108.5,-945.33 108.5,-945.33 108.5,-937.67 108.5,-937.67 108.5,-933.83 112.33,-930 116.17,-930 116.17,-930 167.83,-930 167.83,-930 171.67,-930 175.5,-933.83 175.5,-937.67 175.5,-937.67 175.5,-945.33 175.5,-945.33 175.5,-949.17 171.67,-953 167.83,-953"/>
<text text-anchor="middle" x="142" y="-937.8" font-family="Arial" font-size="14.00" fill="#c6c5fe">dialog.ts</text>
</g>
<!-- internals/singletons/Dialog.ts -->
<g id="node16" class="node">
<title>internals/singletons/Dialog.ts</title>
<path fill="none" stroke="#cfffac" d="M500.33,-953C500.33,-953 327.67,-953 327.67,-953 323.83,-953 320,-949.17 320,-945.33 320,-945.33 320,-937.67 320,-937.67 320,-933.83 323.83,-930 327.67,-930 327.67,-930 500.33,-930 500.33,-930 504.17,-930 508,-933.83 508,-937.67 508,-937.67 508,-945.33 508,-945.33 508,-949.17 504.17,-953 500.33,-953"/>
<text text-anchor="middle" x="414" y="-937.8" font-family="Arial" font-size="14.00" fill="#cfffac">internals/singletons/Dialog.ts</text>
</g>
<!-- dialog.ts&#45;&gt;internals/singletons/Dialog.ts -->
<g id="edge9" class="edge">
<title>dialog.ts&#45;&gt;internals/singletons/Dialog.ts</title>
<path fill="none" stroke="#757575" d="M175.57,-941.5C208.76,-941.5 262,-941.5 309.66,-941.5"/>
<polygon fill="#757575" stroke="#757575" points="309.74,-945 319.74,-941.5 309.73,-938 309.74,-945"/>
</g>
<!-- doAction.ts -->
<g id="node17" class="node">
<title>doAction.ts</title>
<path fill="none" stroke="#c6c5fe" d="M447.83,-228C447.83,-228 380.17,-228 380.17,-228 376.33,-228 372.5,-224.17 372.5,-220.33 372.5,-220.33 372.5,-212.67 372.5,-212.67 372.5,-208.83 376.33,-205 380.17,-205 380.17,-205 447.83,-205 447.83,-205 451.67,-205 455.5,-208.83 455.5,-212.67 455.5,-212.67 455.5,-220.33 455.5,-220.33 455.5,-224.17 451.67,-228 447.83,-228"/>
<text text-anchor="middle" x="414" y="-212.8" font-family="Arial" font-size="14.00" fill="#c6c5fe">doAction.ts</text>
</g>
<!-- doAction.ts&#45;&gt;internals/singletons/MacroService.ts -->
<g id="edge10" class="edge">
<title>doAction.ts&#45;&gt;internals/singletons/MacroService.ts</title>
<path fill="none" stroke="#757575" d="M455.61,-208.63C472.01,-205.12 491.04,-200.61 508,-195.5 551.46,-182.41 599.99,-163.31 632.19,-149.98"/>
<polygon fill="#757575" stroke="#757575" points="633.76,-153.13 641.64,-146.05 631.06,-146.66 633.76,-153.13"/>
</g>
<!-- error.ts -->
<g id="node18" class="node">
<title>error.ts</title>
<path fill="none" stroke="#cfffac" d="M435.83,-994C435.83,-994 392.17,-994 392.17,-994 388.33,-994 384.5,-990.17 384.5,-986.33 384.5,-986.33 384.5,-978.67 384.5,-978.67 384.5,-974.83 388.33,-971 392.17,-971 392.17,-971 435.83,-971 435.83,-971 439.67,-971 443.5,-974.83 443.5,-978.67 443.5,-978.67 443.5,-986.33 443.5,-986.33 443.5,-990.17 439.67,-994 435.83,-994"/>
<text text-anchor="middle" x="414" y="-978.8" font-family="Arial" font-size="14.00" fill="#cfffac">error.ts</text>
</g>
<!-- internals/BaseModel.ts -->
<g id="node19" class="node">
<title>internals/BaseModel.ts</title>
<path fill="none" stroke="#ff6c60" d="M1218.83,-536C1218.83,-536 1080.17,-536 1080.17,-536 1076.33,-536 1072.5,-532.17 1072.5,-528.33 1072.5,-528.33 1072.5,-520.67 1072.5,-520.67 1072.5,-516.83 1076.33,-513 1080.17,-513 1080.17,-513 1218.83,-513 1218.83,-513 1222.67,-513 1226.5,-516.83 1226.5,-520.67 1226.5,-520.67 1226.5,-528.33 1226.5,-528.33 1226.5,-532.17 1222.67,-536 1218.83,-536"/>
<text text-anchor="middle" x="1149.5" y="-520.8" font-family="Arial" font-size="14.00" fill="#ff6c60">internals/BaseModel.ts</text>
</g>
<!-- internals/BaseModel.ts&#45;&gt;internals/singletons/ModelRepository.ts -->
<g id="edge11" class="edge">
<title>internals/BaseModel.ts&#45;&gt;internals/singletons/ModelRepository.ts</title>
<path fill="none" stroke="#757575" d="M1092.07,-536.03C1028.42,-544.47 921.91,-555.61 831,-570.5 810.71,-573.82 789.1,-577.98 768.53,-582.03"/>
<polygon fill="#757575" stroke="#757575" points="767.66,-578.63 758.52,-584 769.01,-585.5 767.66,-578.63"/>
</g>
<!-- route.ts -->
<g id="node21" class="node">
<title>route.ts</title>
<path fill="none" stroke="#c6c5fe" d="M1361.33,-536C1361.33,-536 1314.67,-536 1314.67,-536 1310.83,-536 1307,-532.17 1307,-528.33 1307,-528.33 1307,-520.67 1307,-520.67 1307,-516.83 1310.83,-513 1314.67,-513 1314.67,-513 1361.33,-513 1361.33,-513 1365.17,-513 1369,-516.83 1369,-520.67 1369,-520.67 1369,-528.33 1369,-528.33 1369,-532.17 1365.17,-536 1361.33,-536"/>
<text text-anchor="middle" x="1338" y="-520.8" font-family="Arial" font-size="14.00" fill="#c6c5fe">route.ts</text>
</g>
<!-- internals/BaseModel.ts&#45;&gt;route.ts -->
<g id="edge12" class="edge">
<title>internals/BaseModel.ts&#45;&gt;route.ts</title>
<path fill="none" stroke="#757575" d="M1226.63,-524.5C1250.64,-524.5 1276.23,-524.5 1296.71,-524.5"/>
<polygon fill="#757575" stroke="#757575" points="1296.92,-528 1306.92,-524.5 1296.92,-521 1296.92,-528"/>
</g>
<!-- internals/BaseModel.ts&#45;&gt;support/object.ts -->
<g id="edge13" class="edge">
<title>internals/BaseModel.ts&#45;&gt;support/object.ts</title>
<path fill="none" stroke="#757575" d="M1177.22,-512.89C1209.77,-498.76 1264.87,-474.83 1301.1,-459.09"/>
<polygon fill="#757575" stroke="#757575" points="1302.55,-462.28 1310.33,-455.08 1299.76,-455.86 1302.55,-462.28"/>
</g>
<!-- internals/BaseModel.ts&#45;&gt;types/model.ts -->
<g id="edge14" class="edge">
<title>internals/BaseModel.ts&#45;&gt;types/model.ts</title>
<path fill="none" stroke="#757575" d="M1168.55,-536.26C1187.48,-553.4 1218.02,-584.92 1244,-612.5 1273,-643.29 1306.48,-679.92 1324.3,-702.5"/>
<polygon fill="#757575" stroke="#757575" points="1321.69,-704.85 1330.52,-710.7 1327.26,-700.62 1321.69,-704.85"/>
</g>
<!-- internals/singletons/ModelRepository.ts&#45;&gt;blade.ts -->
<g id="edge25" class="edge">
<title>internals/singletons/ModelRepository.ts&#45;&gt;blade.ts</title>
<path fill="none" stroke="#757575" d="M674.85,-607.03C689.96,-645.55 744.11,-770.8 831,-833.5 846.12,-844.41 865.64,-850.74 882.9,-854.42"/>
<polygon fill="#757575" stroke="#757575" points="882.27,-857.87 892.75,-856.3 883.58,-850.99 882.27,-857.87"/>
</g>
<!-- internals/singletons/ModelRepository.ts&#45;&gt;internals/BaseModel.ts -->
<g id="edge26" class="edge">
<title>internals/singletons/ModelRepository.ts&#45;&gt;internals/BaseModel.ts</title>
<path fill="none" stroke="#757575" d="M693.23,-583.91C724.22,-573.64 781.53,-560.6 831,-552.5 908.85,-539.75 998.13,-529.75 1062.15,-524.92"/>
<polygon fill="#757575" stroke="#757575" points="1062.48,-528.4 1072.2,-524.19 1061.98,-521.42 1062.48,-528.4"/>
</g>
<!-- internals/singletons/ModelRepository.ts&#45;&gt;route.ts -->
<g id="edge28" class="edge">
<title>internals/singletons/ModelRepository.ts&#45;&gt;route.ts</title>
<path fill="none" stroke="#757575" d="M695.5,-583.97C726.59,-570.1 781.62,-547.13 831,-534.5 1009.33,-488.9 1061.06,-483.1 1244,-503.5 1261.57,-505.46 1280.68,-509.44 1296.97,-513.41"/>
<polygon fill="#757575" stroke="#757575" points="1296.16,-516.82 1306.71,-515.87 1297.87,-510.03 1296.16,-516.82"/>
</g>
<!-- internals/singletons/ModelRepository.ts&#45;&gt;support/object.ts -->
<g id="edge29" class="edge">
<title>internals/singletons/ModelRepository.ts&#45;&gt;support/object.ts</title>
<path fill="none" stroke="#757575" d="M683.91,-583.66C710.06,-561.34 770.62,-513.42 831,-492.5 981.21,-440.45 1170.55,-437.39 1269.59,-440.15"/>
<polygon fill="#757575" stroke="#757575" points="1269.65,-443.65 1279.76,-440.46 1269.87,-436.65 1269.65,-443.65"/>
</g>
<!-- internals/singletons/ModelRepository.ts&#45;&gt;types/model.ts -->
<g id="edge30" class="edge">
<title>internals/singletons/ModelRepository.ts&#45;&gt;types/model.ts</title>
<path fill="none" stroke="#757575" d="M681.05,-607.1C703.87,-637.18 761.38,-715.7 831,-753.5 912.09,-797.53 1157.78,-829.38 1244,-796.5 1273.46,-785.27 1299.51,-759.94 1316.49,-741.85"/>
<polygon fill="#757575" stroke="#757575" points="1319.41,-743.85 1323.63,-734.13 1314.27,-739.1 1319.41,-743.85"/>
</g>
<!-- internals/makeBaseModel.ts -->
<g id="node24" class="node">
<title>internals/makeBaseModel.ts</title>
<path fill="none" stroke="#c6c5fe" d="M1011.33,-627C1011.33,-627 838.67,-627 838.67,-627 834.83,-627 831,-623.17 831,-619.33 831,-619.33 831,-611.67 831,-611.67 831,-607.83 834.83,-604 838.67,-604 838.67,-604 1011.33,-604 1011.33,-604 1015.17,-604 1019,-607.83 1019,-611.67 1019,-611.67 1019,-619.33 1019,-619.33 1019,-623.17 1015.17,-627 1011.33,-627"/>
<text text-anchor="middle" x="925" y="-611.8" font-family="Arial" font-size="14.00" fill="#c6c5fe">internals/makeBaseModel.ts</text>
</g>
<!-- internals/singletons/ModelRepository.ts&#45;&gt;internals/makeBaseModel.ts -->
<g id="edge27" class="edge">
<title>internals/singletons/ModelRepository.ts&#45;&gt;internals/makeBaseModel.ts</title>
<path fill="none" stroke="#757575" d="M795.02,-605.32C803.57,-606 812.13,-606.67 820.54,-607.34"/>
<polygon fill="#757575" stroke="#757575" points="820.49,-610.84 830.73,-608.14 821.04,-603.87 820.49,-610.84"/>
</g>
<!-- types/route.ts -->
<g id="node26" class="node">
<title>types/route.ts</title>
<path fill="none" stroke="#cfffac" d="M1522.33,-556C1522.33,-556 1439.67,-556 1439.67,-556 1435.83,-556 1432,-552.17 1432,-548.33 1432,-548.33 1432,-540.67 1432,-540.67 1432,-536.83 1435.83,-533 1439.67,-533 1439.67,-533 1522.33,-533 1522.33,-533 1526.17,-533 1530,-536.83 1530,-540.67 1530,-540.67 1530,-548.33 1530,-548.33 1530,-552.17 1526.17,-556 1522.33,-556"/>
<text text-anchor="middle" x="1481" y="-540.8" font-family="Arial" font-size="14.00" fill="#cfffac">types/route.ts</text>
</g>
<!-- internals/singletons/ModelRepository.ts&#45;&gt;types/route.ts -->
<g id="edge31" class="edge">
<title>internals/singletons/ModelRepository.ts&#45;&gt;types/route.ts</title>
<path fill="none" stroke="#757575" d="M795.21,-587.64C972.68,-576.46 1291.04,-556.4 1421.66,-548.18"/>
<polygon fill="#757575" stroke="#757575" points="1422.09,-551.66 1431.85,-547.53 1421.65,-544.67 1422.09,-551.66"/>
</g>
<!-- route.ts&#45;&gt;types/route.ts -->
<g id="edge34" class="edge">
<title>route.ts&#45;&gt;types/route.ts</title>
<path fill="none" stroke="#757575" d="M1369.25,-528.79C1384.54,-530.96 1403.63,-533.67 1421.63,-536.22"/>
<polygon fill="#757575" stroke="#757575" points="1421.38,-539.72 1431.78,-537.66 1422.37,-532.79 1421.38,-539.72"/>
</g>
<!-- types/model.ts&#45;&gt;internals/BaseModel.ts -->
<g id="edge39" class="edge">
<title>types/model.ts&#45;&gt;internals/BaseModel.ts</title>
<path fill="none" stroke="#757575" d="M1320.32,-710.73C1301.81,-692.81 1270.97,-659.13 1244,-630.5 1215.68,-600.44 1181.95,-565.7 1163.74,-544.09"/>
<polygon fill="#757575" stroke="#757575" points="1166.38,-541.78 1157.36,-536.21 1160.94,-546.19 1166.38,-541.78"/>
</g>
<!-- types/model.ts&#45;&gt;internals/singletons/ModelRepository.ts -->
<g id="edge40" class="edge">
<title>types/model.ts&#45;&gt;internals/singletons/ModelRepository.ts</title>
<path fill="none" stroke="#757575" d="M1331.97,-734.2C1319.47,-755.83 1285.05,-798.85 1244,-814.5 1157.78,-847.38 912.09,-815.53 831,-771.5 760.93,-733.45 703.12,-654.16 680.61,-616.16"/>
<polygon fill="#757575" stroke="#757575" points="683.41,-614 675.44,-607.02 677.32,-617.44 683.41,-614"/>
</g>
<!-- internals/makeBaseModel.ts&#45;&gt;internals/BaseModel.ts -->
<g id="edge15" class="edge">
<title>internals/makeBaseModel.ts&#45;&gt;internals/BaseModel.ts</title>
<path fill="none" stroke="#757575" d="M954.18,-603.97C993.94,-587.71 1066.6,-557.99 1110.92,-539.87"/>
<polygon fill="#757575" stroke="#757575" points="1112.27,-543.1 1120.2,-536.08 1109.62,-536.62 1112.27,-543.1"/>
</g>
<!-- internals/makeBaseModel.ts&#45;&gt;types/model.ts -->
<g id="edge16" class="edge">
<title>internals/makeBaseModel.ts&#45;&gt;types/model.ts</title>
<path fill="none" stroke="#757575" d="M954.05,-627.07C979.92,-637.41 1019.57,-652.45 1055,-662.5 1137.51,-685.91 1160.16,-683.39 1244,-701.5 1254.65,-703.8 1265.98,-706.31 1276.93,-708.76"/>
<polygon fill="#757575" stroke="#757575" points="1276.32,-712.21 1286.84,-710.99 1277.85,-705.38 1276.32,-712.21"/>
</g>
<!-- internals/singletons/Toast.ts -->
<g id="node27" class="node">
<title>internals/singletons/Toast.ts</title>
<path fill="none" stroke="#cfffac" d="M497.33,-1035C497.33,-1035 330.67,-1035 330.67,-1035 326.83,-1035 323,-1031.17 323,-1027.33 323,-1027.33 323,-1019.67 323,-1019.67 323,-1015.83 326.83,-1012 330.67,-1012 330.67,-1012 497.33,-1012 497.33,-1012 501.17,-1012 505,-1015.83 505,-1019.67 505,-1019.67 505,-1027.33 505,-1027.33 505,-1031.17 501.17,-1035 497.33,-1035"/>
<text text-anchor="middle" x="414" y="-1019.8" font-family="Arial" font-size="14.00" fill="#cfffac">internals/singletons/Toast.ts</text>
</g>
<!-- removeAction.ts -->
<g id="node28" class="node">
<title>removeAction.ts</title>
<path fill="none" stroke="#c6c5fe" d="M463.33,-187C463.33,-187 364.67,-187 364.67,-187 360.83,-187 357,-183.17 357,-179.33 357,-179.33 357,-171.67 357,-171.67 357,-167.83 360.83,-164 364.67,-164 364.67,-164 463.33,-164 463.33,-164 467.17,-164 471,-167.83 471,-171.67 471,-171.67 471,-179.33 471,-179.33 471,-183.17 467.17,-187 463.33,-187"/>
<text text-anchor="middle" x="414" y="-171.8" font-family="Arial" font-size="14.00" fill="#c6c5fe">removeAction.ts</text>
</g>
<!-- removeAction.ts&#45;&gt;internals/singletons/MacroService.ts -->
<g id="edge32" class="edge">
<title>removeAction.ts&#45;&gt;internals/singletons/MacroService.ts</title>
<path fill="none" stroke="#757575" d="M471.26,-166.4C505.27,-160.9 549.21,-153.79 586.98,-147.68"/>
<polygon fill="#757575" stroke="#757575" points="587.63,-151.12 596.95,-146.07 586.52,-144.21 587.63,-151.12"/>
</g>
<!-- removeFilter.ts -->
<g id="node29" class="node">
<title>removeFilter.ts</title>
<path fill="none" stroke="#c6c5fe" d="M459.33,-23C459.33,-23 368.67,-23 368.67,-23 364.83,-23 361,-19.17 361,-15.33 361,-15.33 361,-7.67 361,-7.67 361,-3.83 364.83,0 368.67,0 368.67,0 459.33,0 459.33,0 463.17,0 467,-3.83 467,-7.67 467,-7.67 467,-15.33 467,-15.33 467,-19.17 463.17,-23 459.33,-23"/>
<text text-anchor="middle" x="414" y="-7.8" font-family="Arial" font-size="14.00" fill="#c6c5fe">removeFilter.ts</text>
</g>
<!-- removeFilter.ts&#45;&gt;internals/singletons/MacroService.ts -->
<g id="edge33" class="edge">
<title>removeFilter.ts&#45;&gt;internals/singletons/MacroService.ts</title>
<path fill="none" stroke="#757575" d="M467.16,-19.29C480.75,-22.24 495.18,-26.21 508,-31.5 561.49,-53.56 616.74,-93.5 646.42,-116.63"/>
<polygon fill="#757575" stroke="#757575" points="644.42,-119.51 654.44,-122.95 648.76,-114.01 644.42,-119.51"/>
</g>
<!-- toast.ts -->
<g id="node30" class="node">
<title>toast.ts</title>
<path fill="none" stroke="#c6c5fe" d="M164.33,-1035C164.33,-1035 119.67,-1035 119.67,-1035 115.83,-1035 112,-1031.17 112,-1027.33 112,-1027.33 112,-1019.67 112,-1019.67 112,-1015.83 115.83,-1012 119.67,-1012 119.67,-1012 164.33,-1012 164.33,-1012 168.17,-1012 172,-1015.83 172,-1019.67 172,-1019.67 172,-1027.33 172,-1027.33 172,-1031.17 168.17,-1035 164.33,-1035"/>
<text text-anchor="middle" x="142" y="-1019.8" font-family="Arial" font-size="14.00" fill="#c6c5fe">toast.ts</text>
</g>
<!-- toast.ts&#45;&gt;internals/singletons/Toast.ts -->
<g id="edge35" class="edge">
<title>toast.ts&#45;&gt;internals/singletons/Toast.ts</title>
<path fill="none" stroke="#757575" d="M172.15,-1023.5C205.7,-1023.5 262.63,-1023.5 312.72,-1023.5"/>
<polygon fill="#757575" stroke="#757575" points="312.96,-1027 322.96,-1023.5 312.96,-1020 312.96,-1027"/>
</g>
<!-- types/form.ts -->
<g id="node32" class="node">
<title>types/form.ts</title>
<path fill="none" stroke="#c6c5fe" d="M1189.33,-654C1189.33,-654 1109.67,-654 1109.67,-654 1105.83,-654 1102,-650.17 1102,-646.33 1102,-646.33 1102,-638.67 1102,-638.67 1102,-634.83 1105.83,-631 1109.67,-631 1109.67,-631 1189.33,-631 1189.33,-631 1193.17,-631 1197,-634.83 1197,-638.67 1197,-638.67 1197,-646.33 1197,-646.33 1197,-650.17 1193.17,-654 1189.33,-654"/>
<text text-anchor="middle" x="1149.5" y="-638.8" font-family="Arial" font-size="14.00" fill="#c6c5fe">types/form.ts</text>
</g>
<!-- types/form.ts&#45;&gt;types/model.ts -->
<g id="edge37" class="edge">
<title>types/form.ts&#45;&gt;types/model.ts</title>
<path fill="none" stroke="#757575" d="M1197.43,-653.04C1212.57,-657.1 1229.25,-662.29 1244,-668.5 1267.88,-678.56 1293.21,-693.59 1311.39,-705.24"/>
<polygon fill="#757575" stroke="#757575" points="1309.91,-708.45 1320.2,-710.98 1313.73,-702.58 1309.91,-708.45"/>
</g>
<!-- types/laravel.ts -->
<g id="node33" class="node">
<title>types/laravel.ts</title>
<path fill="none" stroke="#c6c5fe" d="M1195.33,-734C1195.33,-734 1103.67,-734 1103.67,-734 1099.83,-734 1096,-730.17 1096,-726.33 1096,-726.33 1096,-718.67 1096,-718.67 1096,-714.83 1099.83,-711 1103.67,-711 1103.67,-711 1195.33,-711 1195.33,-711 1199.17,-711 1203,-714.83 1203,-718.67 1203,-718.67 1203,-726.33 1203,-726.33 1203,-730.17 1199.17,-734 1195.33,-734"/>
<text text-anchor="middle" x="1149.5" y="-718.8" font-family="Arial" font-size="14.00" fill="#c6c5fe">types/laravel.ts</text>
</g>
<!-- types/laravel.ts&#45;&gt;types/model.ts -->
<g id="edge38" class="edge">
<title>types/laravel.ts&#45;&gt;types/model.ts</title>
<path fill="none" stroke="#757575" d="M1203.44,-722.5C1225.96,-722.5 1252.35,-722.5 1275.71,-722.5"/>
<polygon fill="#757575" stroke="#757575" points="1275.85,-726 1285.85,-722.5 1275.85,-719 1275.85,-726"/>
</g>
<!-- types/menu.ts -->
<g id="node34" class="node">
<title>types/menu.ts</title>
<path fill="none" stroke="#cfffac" d="M184.83,-1076C184.83,-1076 99.17,-1076 99.17,-1076 95.33,-1076 91.5,-1072.17 91.5,-1068.33 91.5,-1068.33 91.5,-1060.67 91.5,-1060.67 91.5,-1056.83 95.33,-1053 99.17,-1053 99.17,-1053 184.83,-1053 184.83,-1053 188.67,-1053 192.5,-1056.83 192.5,-1060.67 192.5,-1060.67 192.5,-1068.33 192.5,-1068.33 192.5,-1072.17 188.67,-1076 184.83,-1076"/>
<text text-anchor="middle" x="142" y="-1060.8" font-family="Arial" font-size="14.00" fill="#cfffac">types/menu.ts</text>
</g>
<!-- useAddAction.ts -->
<g id="node35" class="node">
<title>useAddAction.ts</title>
<path fill="none" stroke="#c6c5fe" d="M191.33,-207C191.33,-207 92.67,-207 92.67,-207 88.83,-207 85,-203.17 85,-199.33 85,-199.33 85,-191.67 85,-191.67 85,-187.83 88.83,-184 92.67,-184 92.67,-184 191.33,-184 191.33,-184 195.17,-184 199,-187.83 199,-191.67 199,-191.67 199,-199.33 199,-199.33 199,-203.17 195.17,-207 191.33,-207"/>
<text text-anchor="middle" x="142" y="-191.8" font-family="Arial" font-size="14.00" fill="#c6c5fe">useAddAction.ts</text>
</g>
<!-- useAddAction.ts&#45;&gt;addAction.ts -->
<g id="edge41" class="edge">
<title>useAddAction.ts&#45;&gt;addAction.ts</title>
<path fill="none" stroke="#757575" d="M163.9,-183.95C196.39,-166.43 261.39,-133.11 320,-113.5 332.23,-109.41 345.66,-105.95 358.42,-103.12"/>
<polygon fill="#757575" stroke="#757575" points="359.41,-106.49 368.46,-100.99 357.95,-99.64 359.41,-106.49"/>
</g>
<!-- useAddAction.ts&#45;&gt;doAction.ts -->
<g id="edge42" class="edge">
<title>useAddAction.ts&#45;&gt;doAction.ts</title>
<path fill="none" stroke="#757575" d="M199.27,-199.88C247.26,-203.61 315.65,-208.93 362.05,-212.54"/>
<polygon fill="#757575" stroke="#757575" points="361.94,-216.04 372.18,-213.33 362.48,-209.06 361.94,-216.04"/>
</g>
<!-- useAddAction.ts&#45;&gt;types/macro.ts -->
<g id="edge44" class="edge">
<title>useAddAction.ts&#45;&gt;types/macro.ts</title>
<path fill="none" stroke="#757575" d="M181.23,-207.02C216.78,-217.09 271.42,-230.95 320,-236.5 517.09,-259.03 752.67,-242.26 862.27,-231.97"/>
<polygon fill="#757575" stroke="#757575" points="862.85,-235.43 872.47,-230.99 862.19,-228.46 862.85,-235.43"/>
</g>
<!-- useAddAction.ts&#45;&gt;removeAction.ts -->
<g id="edge43" class="edge">
<title>useAddAction.ts&#45;&gt;removeAction.ts</title>
<path fill="none" stroke="#757575" d="M199.27,-191.33C242.23,-188.15 301.54,-183.76 346.79,-180.4"/>
<polygon fill="#757575" stroke="#757575" points="347.09,-183.89 356.8,-179.66 346.57,-176.91 347.09,-183.89"/>
</g>
<!-- useApiRequest.ts -->
<g id="node36" class="node">
<title>useApiRequest.ts</title>
<path fill="none" stroke="#cfffac" d="M1202.83,-775C1202.83,-775 1096.17,-775 1096.17,-775 1092.33,-775 1088.5,-771.17 1088.5,-767.33 1088.5,-767.33 1088.5,-759.67 1088.5,-759.67 1088.5,-755.83 1092.33,-752 1096.17,-752 1096.17,-752 1202.83,-752 1202.83,-752 1206.67,-752 1210.5,-755.83 1210.5,-759.67 1210.5,-759.67 1210.5,-767.33 1210.5,-767.33 1210.5,-771.17 1206.67,-775 1202.83,-775"/>
<text text-anchor="middle" x="1149.5" y="-759.8" font-family="Arial" font-size="14.00" fill="#cfffac">useApiRequest.ts</text>
</g>
<!-- useApplyFilters.ts -->
<g id="node37" class="node">
<title>useApplyFilters.ts</title>
<path fill="none" stroke="#c6c5fe" d="M195.83,-64C195.83,-64 88.17,-64 88.17,-64 84.33,-64 80.5,-60.17 80.5,-56.33 80.5,-56.33 80.5,-48.67 80.5,-48.67 80.5,-44.83 84.33,-41 88.17,-41 88.17,-41 195.83,-41 195.83,-41 199.67,-41 203.5,-44.83 203.5,-48.67 203.5,-48.67 203.5,-56.33 203.5,-56.33 203.5,-60.17 199.67,-64 195.83,-64"/>
<text text-anchor="middle" x="142" y="-48.8" font-family="Arial" font-size="14.00" fill="#c6c5fe">useApplyFilters.ts</text>
</g>
<!-- useApplyFilters.ts&#45;&gt;applyFilters.ts -->
<g id="edge45" class="edge">
<title>useApplyFilters.ts&#45;&gt;applyFilters.ts</title>
<path fill="none" stroke="#757575" d="M203.59,-52.5C248.45,-52.5 309.25,-52.5 353.78,-52.5"/>
<polygon fill="#757575" stroke="#757575" points="353.88,-56 363.88,-52.5 353.88,-49 353.88,-56"/>
</g>
<!-- useClearErrorsOnExit.ts -->
<g id="node38" class="node">
<title>useClearErrorsOnExit.ts</title>
<path fill="none" stroke="#c6c5fe" d="M215.83,-994C215.83,-994 68.17,-994 68.17,-994 64.33,-994 60.5,-990.17 60.5,-986.33 60.5,-986.33 60.5,-978.67 60.5,-978.67 60.5,-974.83 64.33,-971 68.17,-971 68.17,-971 215.83,-971 215.83,-971 219.67,-971 223.5,-974.83 223.5,-978.67 223.5,-978.67 223.5,-986.33 223.5,-986.33 223.5,-990.17 219.67,-994 215.83,-994"/>
<text text-anchor="middle" x="142" y="-978.8" font-family="Arial" font-size="14.00" fill="#c6c5fe">useClearErrorsOnExit.ts</text>
</g>
<!-- useClearErrorsOnExit.ts&#45;&gt;error.ts -->
<g id="edge46" class="edge">
<title>useClearErrorsOnExit.ts&#45;&gt;error.ts</title>
<path fill="none" stroke="#757575" d="M223.64,-982.5C273.46,-982.5 335.14,-982.5 374.29,-982.5"/>
<polygon fill="#757575" stroke="#757575" points="374.46,-986 384.46,-982.5 374.46,-979 374.46,-986"/>
</g>
<!-- useFetchList.ts -->
<g id="node39" class="node">
<title>useFetchList.ts</title>
<path fill="none" stroke="#c6c5fe" d="M970.83,-754C970.83,-754 879.17,-754 879.17,-754 875.33,-754 871.5,-750.17 871.5,-746.33 871.5,-746.33 871.5,-738.67 871.5,-738.67 871.5,-734.83 875.33,-731 879.17,-731 879.17,-731 970.83,-731 970.83,-731 974.67,-731 978.5,-734.83 978.5,-738.67 978.5,-738.67 978.5,-746.33 978.5,-746.33 978.5,-750.17 974.67,-754 970.83,-754"/>
<text text-anchor="middle" x="925" y="-738.8" font-family="Arial" font-size="14.00" fill="#c6c5fe">useFetchList.ts</text>
</g>
<!-- useFetchList.ts&#45;&gt;route.ts -->
<g id="edge47" class="edge">
<title>useFetchList.ts&#45;&gt;route.ts</title>
<path fill="none" stroke="#757575" d="M935.44,-730.79C955.22,-706.99 1003.45,-652.56 1055,-621.5 1134.11,-573.83 1239.91,-545.49 1296.78,-532.69"/>
<polygon fill="#757575" stroke="#757575" points="1297.8,-536.05 1306.81,-530.48 1296.29,-529.22 1297.8,-536.05"/>
</g>
<!-- useFetchList.ts&#45;&gt;types/model.ts -->
<g id="edge49" class="edge">
<title>useFetchList.ts&#45;&gt;types/model.ts</title>
<path fill="none" stroke="#757575" d="M953.59,-754C979.31,-764.06 1019.01,-777.92 1055,-783.5 1138.01,-796.37 1163.51,-807.54 1244,-783.5 1271.82,-775.19 1299.05,-755.59 1316.78,-740.84"/>
<polygon fill="#757575" stroke="#757575" points="1319.38,-743.22 1324.68,-734.05 1314.82,-737.91 1319.38,-743.22"/>
</g>
<!-- useFetchList.ts&#45;&gt;types/laravel.ts -->
<g id="edge48" class="edge">
<title>useFetchList.ts&#45;&gt;types/laravel.ts</title>
<path fill="none" stroke="#757575" d="M978.73,-737.76C1010.76,-734.88 1051.83,-731.19 1085.55,-728.16"/>
<polygon fill="#757575" stroke="#757575" points="1086.12,-731.62 1095.76,-727.24 1085.49,-724.65 1086.12,-731.62"/>
</g>
<!-- useFetchList.ts&#45;&gt;useApiRequest.ts -->
<g id="edge50" class="edge">
<title>useFetchList.ts&#45;&gt;useApiRequest.ts</title>
<path fill="none" stroke="#757575" d="M978.73,-747.48C1008.41,-750.28 1045.87,-753.81 1078.04,-756.85"/>
<polygon fill="#757575" stroke="#757575" points="1078,-760.36 1088.29,-757.82 1078.66,-753.39 1078,-760.36"/>
</g>
</g>
</svg>
