<?xml version="1.0" encoding="UTF-8" standalone="no"?>
<!DOCTYPE svg PUBLIC "-//W3C//DTD SVG 1.1//EN"
 "http://www.w3.org/Graphics/SVG/1.1/DTD/svg11.dtd">
<!-- Generated by graphviz version 2.43.0 (0)
 -->
<!-- Title: G Pages: 1 -->
<svg width="892pt" height="122pt"
 viewBox="0.00 0.00 892.20 122.35" xmlns="http://www.w3.org/2000/svg" xmlns:xlink="http://www.w3.org/1999/xlink">
<g id="graph0" class="graph" transform="scale(1 1) rotate(0) translate(21.6 100.75)">
<title>G</title>
<polygon fill="#111111" stroke="transparent" points="-21.6,21.6 -21.6,-100.75 870.6,-100.75 870.6,21.6 -21.6,21.6"/>
<!-- bootstrapApp.ts -->
<g id="node1" class="node">
<title>bootstrapApp.ts</title>
<path fill="none" stroke="#c6c5fe" d="M103.33,-63C103.33,-63 7.67,-63 7.67,-63 3.83,-63 0,-59.17 0,-55.33 0,-55.33 0,-47.67 0,-47.67 0,-43.83 3.83,-40 7.67,-40 7.67,-40 103.33,-40 103.33,-40 107.17,-40 111,-43.83 111,-47.67 111,-47.67 111,-55.33 111,-55.33 111,-59.17 107.17,-63 103.33,-63"/>
<text text-anchor="middle" x="55.5" y="-47.8" font-family="Arial" font-size="14.00" fill="#c6c5fe">bootstrapApp.ts</text>
</g>
<!-- config.ts -->
<g id="node2" class="node">
<title>config.ts</title>
<path fill="none" stroke="#c6c5fe" d="M391.33,-63C391.33,-63 339.67,-63 339.67,-63 335.83,-63 332,-59.17 332,-55.33 332,-55.33 332,-47.67 332,-47.67 332,-43.83 335.83,-40 339.67,-40 339.67,-40 391.33,-40 391.33,-40 395.17,-40 399,-43.83 399,-47.67 399,-47.67 399,-55.33 399,-55.33 399,-59.17 395.17,-63 391.33,-63"/>
<text text-anchor="middle" x="365.5" y="-47.8" font-family="Arial" font-size="14.00" fill="#c6c5fe">config.ts</text>
</g>
<!-- bootstrapApp.ts&#45;&gt;config.ts -->
<g id="edge1" class="edge">
<title>bootstrapApp.ts&#45;&gt;config.ts</title>
<path fill="none" stroke="#757575" d="M97.15,-63.01C112.62,-66.84 130.49,-70.61 147,-72.5 212.79,-80.03 230.51,-82.31 296,-72.5 305.3,-71.11 315.09,-68.7 324.26,-66.01"/>
<polygon fill="#757575" stroke="#757575" points="325.41,-69.32 333.92,-63 323.33,-62.63 325.41,-69.32"/>
</g>
<!-- internals/setupLang.ts -->
<g id="node3" class="node">
<title>internals/setupLang.ts</title>
<path fill="none" stroke="#c6c5fe" d="M288.33,-63C288.33,-63 154.67,-63 154.67,-63 150.83,-63 147,-59.17 147,-55.33 147,-55.33 147,-47.67 147,-47.67 147,-43.83 150.83,-40 154.67,-40 154.67,-40 288.33,-40 288.33,-40 292.17,-40 296,-43.83 296,-47.67 296,-47.67 296,-55.33 296,-55.33 296,-59.17 292.17,-63 288.33,-63"/>
<text text-anchor="middle" x="221.5" y="-47.8" font-family="Arial" font-size="14.00" fill="#c6c5fe">internals/setupLang.ts</text>
</g>
<!-- bootstrapApp.ts&#45;&gt;internals/setupLang.ts -->
<g id="edge2" class="edge">
<title>bootstrapApp.ts&#45;&gt;internals/setupLang.ts</title>
<path fill="none" stroke="#757575" d="M111.11,-51.5C119.35,-51.5 128,-51.5 136.68,-51.5"/>
<polygon fill="#757575" stroke="#757575" points="136.86,-55 146.86,-51.5 136.86,-48 136.86,-55"/>
</g>
<!-- types/config.ts -->
<g id="node4" class="node">
<title>types/config.ts</title>
<path fill="none" stroke="#c6c5fe" d="M706.83,-23C706.83,-23 619.17,-23 619.17,-23 615.33,-23 611.5,-19.17 611.5,-15.33 611.5,-15.33 611.5,-7.67 611.5,-7.67 611.5,-3.83 615.33,0 619.17,0 619.17,0 706.83,0 706.83,0 710.67,0 714.5,-3.83 714.5,-7.67 714.5,-7.67 714.5,-15.33 714.5,-15.33 714.5,-19.17 710.67,-23 706.83,-23"/>
<text text-anchor="middle" x="663" y="-7.8" font-family="Arial" font-size="14.00" fill="#c6c5fe">types/config.ts</text>
</g>
<!-- bootstrapApp.ts&#45;&gt;types/config.ts -->
<g id="edge3" class="edge">
<title>bootstrapApp.ts&#45;&gt;types/config.ts</title>
<path fill="none" stroke="#757575" d="M101.33,-39.93C115.81,-36.64 132,-33.43 147,-31.5 310.11,-10.48 504.48,-9.33 601.14,-10.36"/>
<polygon fill="#757575" stroke="#757575" points="601.27,-13.86 611.31,-10.48 601.35,-6.86 601.27,-13.86"/>
</g>
<!-- singletons/Config.ts -->
<g id="node5" class="node">
<title>singletons/Config.ts</title>
<path fill="none" stroke="#c6c5fe" d="M561.33,-63C561.33,-63 442.67,-63 442.67,-63 438.83,-63 435,-59.17 435,-55.33 435,-55.33 435,-47.67 435,-47.67 435,-43.83 438.83,-40 442.67,-40 442.67,-40 561.33,-40 561.33,-40 565.17,-40 569,-43.83 569,-47.67 569,-47.67 569,-55.33 569,-55.33 569,-59.17 565.17,-63 561.33,-63"/>
<text text-anchor="middle" x="502" y="-47.8" font-family="Arial" font-size="14.00" fill="#c6c5fe">singletons/Config.ts</text>
</g>
<!-- config.ts&#45;&gt;singletons/Config.ts -->
<g id="edge4" class="edge">
<title>config.ts&#45;&gt;singletons/Config.ts</title>
<path fill="none" stroke="#757575" d="M399.06,-51.5C406.97,-51.5 415.76,-51.5 424.76,-51.5"/>
<polygon fill="#757575" stroke="#757575" points="424.99,-55 434.99,-51.5 424.99,-48 424.99,-55"/>
</g>
<!-- internals/setupLang.ts&#45;&gt;config.ts -->
<g id="edge5" class="edge">
<title>internals/setupLang.ts&#45;&gt;config.ts</title>
<path fill="none" stroke="#757575" d="M296.41,-51.5C305.03,-51.5 313.6,-51.5 321.59,-51.5"/>
<polygon fill="#757575" stroke="#757575" points="321.74,-55 331.74,-51.5 321.74,-48 321.74,-55"/>
</g>
<!-- types/lang.ts -->
<g id="node7" class="node">
<title>types/lang.ts</title>
<path fill="none" stroke="#cfffac" d="M841.33,-23C841.33,-23 764.67,-23 764.67,-23 760.83,-23 757,-19.17 757,-15.33 757,-15.33 757,-7.67 757,-7.67 757,-3.83 760.83,0 764.67,0 764.67,0 841.33,0 841.33,0 845.17,0 849,-3.83 849,-7.67 849,-7.67 849,-15.33 849,-15.33 849,-19.17 845.17,-23 841.33,-23"/>
<text text-anchor="middle" x="803" y="-7.8" font-family="Arial" font-size="14.00" fill="#cfffac">types/lang.ts</text>
</g>
<!-- types/config.ts&#45;&gt;types/lang.ts -->
<g id="edge8" class="edge">
<title>types/config.ts&#45;&gt;types/lang.ts</title>
<path fill="none" stroke="#757575" d="M714.6,-11.5C725.1,-11.5 736.2,-11.5 746.85,-11.5"/>
<polygon fill="#757575" stroke="#757575" points="746.88,-15 756.88,-11.5 746.88,-8 746.88,-15"/>
</g>
<!-- singletons/Config.ts&#45;&gt;types/config.ts -->
<g id="edge7" class="edge">
<title>singletons/Config.ts&#45;&gt;types/config.ts</title>
<path fill="none" stroke="#757575" d="M548.99,-39.93C566.87,-35.43 587.52,-30.24 606.24,-25.53"/>
<polygon fill="#757575" stroke="#757575" points="607.27,-28.88 616.11,-23.04 605.56,-22.09 607.27,-28.88"/>
</g>
<!-- support/object.ts -->
<g id="node6" class="node">
<title>support/object.ts</title>
<path fill="none" stroke="#cfffac" d="M713.33,-64C713.33,-64 612.67,-64 612.67,-64 608.83,-64 605,-60.17 605,-56.33 605,-56.33 605,-48.67 605,-48.67 605,-44.83 608.83,-41 612.67,-41 612.67,-41 713.33,-41 713.33,-41 717.17,-41 721,-44.83 721,-48.67 721,-48.67 721,-56.33 721,-56.33 721,-60.17 717.17,-64 713.33,-64"/>
<text text-anchor="middle" x="663" y="-48.8" font-family="Arial" font-size="14.00" fill="#cfffac">support/object.ts</text>
</g>
<!-- singletons/Config.ts&#45;&gt;support/object.ts -->
<g id="edge6" class="edge">
<title>singletons/Config.ts&#45;&gt;support/object.ts</title>
<path fill="none" stroke="#757575" d="M569.05,-51.92C577.48,-51.97 586.12,-52.02 594.57,-52.08"/>
<polygon fill="#757575" stroke="#757575" points="594.74,-55.58 604.76,-52.14 594.79,-48.58 594.74,-55.58"/>
</g>
</g>
</svg>
